<?xml version="1.0" encoding="UTF-8" standalone="no"?>
<!-- Created with Inkscape (http://www.inkscape.org/) -->

<svg
   width="433.54999mm"
   height="147.29518mm"
   viewBox="0 0 433.54999 147.29518"
   version="1.1"
   id="svg516"
   inkscape:version="1.1.2 (b8e25be833, 2022-02-05)"
   sodipodi:docname="1879logo1.svg"
   xmlns:inkscape="http://www.inkscape.org/namespaces/inkscape"
   xmlns:sodipodi="http://sodipodi.sourceforge.net/DTD/sodipodi-0.dtd"
   xmlns="http://www.w3.org/2000/svg"
   xmlns:svg="http://www.w3.org/2000/svg">
  <sodipodi:namedview
     id="namedview518"
     pagecolor="#ffffff"
     bordercolor="#666666"
     borderopacity="1.0"
     inkscape:pageshadow="2"
     inkscape:pageopacity="0.0"
     inkscape:pagecheckerboard="0"
     inkscape:document-units="mm"
     showgrid="false"
     showborder="false"
     inkscape:zoom="0.733172"
     inkscape:cx="1037.2737"
     inkscape:cy="380.53827"
     inkscape:window-width="1920"
     inkscape:window-height="1009"
     inkscape:window-x="-8"
     inkscape:window-y="-8"
     inkscape:window-maximized="1"
     inkscape:current-layer="layer1" />
  <defs
     id="defs513" />
  <g
     inkscape:label="Layer 1"
     inkscape:groupmode="layer"
     id="layer1"
     transform="translate(87.942662,-19.09724)">
    <path
       style="fill:#ecc775;stroke-width:0.264585"
       d="m 28.782548,166.25304 -4.500036,-0.3 C 4.2823542,164.25303 -16.817812,158.95299 -36.217966,150.95292 A 217.00171,217.00171 0 0 1 -55.918121,140.95284 C -85.918358,122.9527 -96.21844,101.55253 -80.918319,88.552429 c 2.50002,-2.200017 2.800022,-2.200017 2.50002,-0.400003 -0.500004,2.800022 -0.200002,6.800054 0.500004,9.400074 a 38.0003,38.0003 0 0 0 7.000055,12.6001 c 1.600013,1.90001 5.900047,6.30005 6.200049,6.30005 l 0.300002,-5.20004 c 0,-5.00004 0,-5.30004 0.700006,-6.40005 0.800006,-1.30001 1.400011,-1.70002 8.000063,-4.40004 a 17077.635,17077.635 0 0 0 22.600179,-8.900067 c 1.700013,0 3.500027,1.600012 4.000031,3.400027 0.200002,0.600004 0.300003,7.40006 0.300003,19.20015 v 24.8002 l 2.300018,1.00001 2.900023,1.30001 0.600005,0.1 v -28.60023 c 0,-27.200215 0,-28.800227 -0.400004,-29.000229 L -33.417944,83.65239 c -7.70006,0 -10.300081,0 -13.200104,0.400004 a 63.000498,63.000498 0 0 0 -22.200175,6.40005 c -1.100009,0.600005 -2.100017,1.000008 -2.200018,0.900007 -0.500004,-0.500004 1.800015,-4.200033 3.80003,-6.30005 7.000056,-7.400058 20.100159,-11.50009 39.20031,-12.000094 l 5.00004,-0.200002 V 60.552208 c 0,-13.500107 0,-13.200104 1.800014,-14.800117 1.100008,-1.000008 4.000031,-2.400019 4.300034,-2.200017 0.200001,0.1 0.300002,10.600083 0.300002,28.200222 0,26.700211 0,28.000222 0.500004,28.400224 0.600005,0.5 1.700013,0.5 2.100017,0 0.300002,-0.200001 0.300002,-7.500058 0.300002,-29.300231 0,-27.400216 0,-29.000229 0.500004,-29.300231 0.700005,-0.700006 4.3000339,-2.400019 4.5000355,-2.200018 0.2000016,0 0.3000024,13.600108 0.3000024,36.500289 0,36.000281 0,36.400291 0.5000039,36.900291 0.7000055,0.60001 1.3000103,0.70001 2.0000158,0.1 0.500004,-0.3 0.500004,-1.00001 0.6000048,-37.500295 V 37.752028 c 0,-0.500004 4.1000323,-2.700022 4.70003708,-2.400019 0.30000237,0 0.40000316,7.000055 0.40000316,45.400358 0,33.700263 0,45.400363 0.30000237,45.900363 0.20000158,0.5 0.50000395,0.6 1.20000949,0.6 1.8000142,0 1.7000134,3.90004 1.7000134,-47.50037 V 33.351993 l 2.3000182,-1.000008 c 1.3000103,-0.700005 2.8000221,-1.200009 3.4000269,-1.30001 1.0000079,-0.100001 1.2000094,0 2.000016,0.700005 0.600004,0.500004 1.200009,1.300011 1.500012,1.700014 0.400003,0.800006 0.400003,4.800038 0.400003,59.600471 0,32.400255 0.100001,58.900465 0.200001,59.000465 0.400004,0.4 5.100041,1.20001 5.400043,0.90001 0.200002,-0.2 0.300002,-22.40018 0.300002,-65.60052 V 22.051904 l 0.700006,-1.000008 c 0.400003,-0.700006 1.100009,-1.30001 1.600013,-1.600013 1.000007,-0.400003 3.000023,-0.500004 4.000031,-0.100001 0.600005,0.200002 5.300042,4.500036 13.800109,12.700101 17.400138,16.700132 19.00015,18.200144 19.400153,18.200144 0.500004,0 0.600005,-1.000008 0.400004,-3.500028 -0.100001,-1.500012 0,-2.700021 0.1,-3.100025 l 0.300003,-0.800006 h 8.700068 c 4.800038,0 8.80007,0.100001 8.80007,0.200002 a 3011.2238,3011.2238 0 0 1 -0.200002,23.000181 l -0.700005,0.500004 c -0.600005,0.400003 -0.700006,0.300003 8.700069,9.300074 l 6.200049,6.000047 c 1.30001,1.30001 1.400011,3.900031 0.200001,5.200041 -1.200009,1.300011 -1.800014,1.300011 -9.300073,1.300011 -9.800078,0 -9.500075,-0.100001 -9.800078,5.800045 v 4.200034 c 0,0.300002 1.20001,1.500011 2.600021,2.600023 a 47.000371,47.000371 0 0 1 16.50013,22.00017 c 0.700006,2.30002 0.800006,6.00005 0.300003,8.40007 -0.400004,2.00001 -2.100017,5.30004 -3.600029,7.10005 a 20.30016,20.30016 0 0 1 -4.900039,4.20004 c -0.200001,0 -0.200001,-0.30001 -0.1,-0.90001 l 0.300002,-3.00002 c 0.400003,-4.40004 -1.500012,-10.00008 -5.10004,-15.00012 a 38.200302,38.200302 0 0 0 -5.500044,-6.20005 712.50563,712.50563 0 0 0 -0.200001,31.00024 l 0.200001,4.40004 0.900007,-0.1 a 58.000458,58.000458 0 0 0 14.000111,-5.40005 l -0.500004,1.30001 c -5.00004,9.80008 -19.200152,16.00013 -39.900315,17.40014 -3.700029,0.3 -15.000119,0.3 -17.600139,0.1 z m 7.200057,-52.60041 c 0.300002,-0.3 0.400003,-9.10007 0,-9.50008 -0.200002,-0.3 -1.20001,-0.4 -5.00004,-0.4 -4.000031,0 -4.700037,0 -4.800038,0.4 -0.300002,0.60001 -0.200001,9.00007 0,9.30008 0.100001,0.2 0.400003,0.3 0.700006,0.4 1.000008,0.2 8.90007,0 9.000071,-0.2 z m 14.500114,-0.3 c 0.500004,-0.70001 0.500004,-8.90008 0,-9.30008 -0.300002,-0.2 -1.800014,-0.3 -5.000039,-0.2 h -4.800038 v 9.90008 l 2.900023,0.2 c 4.000031,0.2 6.500051,0 7.000055,-0.5 z M 35.782603,99.252514 c 0.500004,-0.300003 0.500004,-0.600005 0.500004,-4.900039 0,-3.600028 0,-4.600036 -0.400003,-4.900039 -0.200002,-0.200001 -1.800014,-0.200001 -5.00004,-0.200001 h -4.800038 v 5.000039 c -0.1,3.700029 0,4.900039 0.200002,5.00004 0.500004,0.400003 8.90007,0.300002 9.500075,0 z m 14.700116,0 c 0.400003,-0.400004 0.500004,-8.80007 0.200002,-9.600076 -0.100001,-0.400003 -0.800007,-0.500004 -5.00004,-0.500004 -2.700021,0 -5.000039,0.100001 -5.000039,0.300002 a 48.000379,48.000379 0 0 0 0.100001,9.800078 c 0.600004,0.400003 9.400074,0.300002 9.700076,0 z m 71.600561,64.000506 c -4.60003,-2.00002 -5.90004,-8.60007 -2.40001,-12.5001 2.60002,-3.00002 7.30005,-3.20002 10.00007,-0.4 0.90001,1.00001 1.00001,1.90001 0.20001,2.00001 -0.30001,0 -1.00001,-0.4 -1.70002,-1 -3.40002,-3.00003 -8.30006,-0.60001 -8.70007,4.20003 -0.2,1.50001 0,1.80001 0.60001,3.30002 1.10001,2.20002 2.40002,3.10003 4.50003,3.30003 a 5.0000395,5.0000395 0 0 0 4.30004,-1.80001 c 0.7,-1.00001 1.70001,-1.00001 1.80001,0 0.1,0.7 -1.00001,2.00001 -2.60002,2.80002 -1.70001,0.8 -4.30003,0.90001 -6.00005,0.1 z m 12.4001,-0.3 c -5.20004,-3.00003 -5.00004,-11.20009 0.30001,-13.90011 3.60002,-1.80002 7.70006,-0.1 9.60007,3.90003 0.80001,1.80001 0.70001,5.00004 -0.2,6.80005 a 7.0000553,7.0000553 0 0 1 -6.50005,4.00003 5.0000395,5.0000395 0 0 1 -3.20003,-0.8 z m 5.20004,-1.10001 a 5.0000395,5.0000395 0 0 0 2.90003,-3.00003 c 1.90001,-4.00003 -0.80001,-8.80007 -4.80004,-8.80007 -2.50002,0 -4.60004,2.00002 -5.20004,4.80004 -1.00001,4.60004 3.10002,8.60007 7.10005,7.00006 z m 6.70006,1.60001 c -0.2,-0.2 -0.30001,-2.20002 -0.30001,-7.30006 0,-6.20005 0,-7.10005 0.40001,-7.40006 0.3,-0.3 0.6,-0.3 0.9,-0.1 l 4.90004,5.80005 c 2.40002,3.00002 4.50004,5.60004 4.70004,5.60004 0.1,0 0.2,-1.90001 0.2,-5.30004 0,-3.00002 0.1,-5.60004 0.2,-5.90004 0.20001,-0.50001 1.00001,-0.50001 1.40001,0 0.20001,0.2 0.30001,2.20001 0.30001,7.30005 0,7.50006 0,8.00007 -1.30001,7.50006 -0.30001,0 -2.50002,-2.70002 -5.00004,-5.90004 l -4.70004,-5.70005 v 5.50004 c -0.1,3.60003 -0.2,5.70005 -0.4,5.90005 -0.40001,0.4 -0.90001,0.5 -1.30001,0 z m 16.60013,0 c -1.70002,-0.6 -2.90002,-1.50001 -2.90002,-2.20002 0,-1 0.7,-1 2.10001,0 1.60001,1.00001 4.30004,1.30001 6.00005,0.70001 1.90001,-0.60001 2.10002,-3.00002 0.4,-4.00003 -0.4,-0.3 -1.80001,-0.70001 -3.00002,-1.00001 -4.00003,-1.00001 -5.40004,-2.20002 -5.10004,-4.70004 0.2,-2.40002 2.40002,-4.00003 5.50004,-3.90003 2.90002,0 5.50005,1.60001 4.40004,2.60002 -0.40001,0.40001 -0.50001,0.40001 -1.70002,-0.2 -1,-0.5 -1.60001,-0.70001 -2.80002,-0.70001 -2.40002,0 -3.60003,0.90001 -3.60003,2.50002 0,1.60002 0.80001,2.00002 4.50004,2.90003 3.40002,0.7 4.90004,2.10001 4.80004,4.40003 0,1.40001 -0.80001,2.70002 -2.20002,3.40003 -1.00001,0.4 -1.60001,0.6 -3.30003,0.5 -1.20001,0 -2.60002,-0.1 -3.00002,-0.3 z m 13.4001,0 -0.2,-6.80005 v -6.50005 l -2.60002,-0.10001 c -2.40002,-0.1 -2.50002,-0.1 -2.50002,-0.8 v -0.70001 h 5.90005 c 6.10005,-0.1 6.70005,0 6.30005,1.00001 -0.2,0.4 -0.60001,0.5 -2.70002,0.5 h -2.40002 v 5.70005 c 0,6.90005 -0.1,7.90006 -1.00001,8.00006 -0.3,0 -0.6,0 -0.70001,-0.3 z m 7.70006,0 V 148.5529 h 3.50003 c 4.00003,-0.1 4.70004,0 6.00005,1.50001 a 4.7000371,4.7000371 0 0 1 1.20001,4.50004 5.9000466,5.9000466 0 0 1 -2.50002,3.30003 c -0.4,0.3 -0.4,0.5 1.00001,2.60002 1.60001,2.40002 1.80001,3.20002 0.8,3.30002 -0.5,0 -1,-0.4 -2.40002,-2.60002 l -1.80001,-2.80002 h -2.00002 l -2.10001,-0.1 v 2.30002 a 10.000079,10.000079 0 0 1 -0.3,2.70002 c -0.30001,0.6 -1.20001,0.7 -1.40002,0.2 z m 7.50006,-7.20006 c 1.80002,-1 2.10002,-3.70003 0.60001,-5.30004 -0.80001,-0.8 -1.00001,-0.8 -3.60003,-0.90001 h -2.80002 v 6.60006 h 2.40002 c 1.70001,0 2.70002,-0.1 3.40002,-0.40001 z m 8.20007,7.10006 a 6.5000513,6.5000513 0 0 1 -3.00003,-2.90002 c -0.5,-1.00001 -0.5,-1.40001 -0.5,-6.40005 v -5.50005 h 1.30001 l 0.1,5.00004 c 0.1,4.50004 0.2,5.00004 0.80001,6.10005 1.00001,2.00002 1.80001,2.40002 4.00003,2.40002 2.20002,0 3.00002,-0.4 4.00003,-2.40002 0.60001,-1.20001 0.60001,-1.60001 0.70001,-6.20005 0.2,-4.40003 0.2,-4.90004 0.6,-5.00004 1.00001,-0.1 1.30001,0.40001 1.30001,3.50003 0,7.50006 -1.00001,10.20008 -4.00003,11.40009 a 9.0000711,9.0000711 0 0 1 -5.30004,0 z m 14.40011,-0.1 a 9.4000743,9.4000743 0 0 1 -3.90003,-4.40004 8.0000632,8.0000632 0 0 1 4.00003,-9.90007 c 1.40001,-0.60001 4.00003,-0.60001 5.50005,0 1.30001,0.6 2.90002,2.20001 2.70002,2.80002 -0.1,1.00001 -1.00001,0.8 -2.20002,-0.3 a 4.9000387,4.9000387 0 0 0 -6.20005,-0.50001 c -1.30001,0.80001 -2.00001,2.00002 -2.40002,4.00003 -0.3,1.30001 -0.2,1.70002 0.1,3.00003 a 6.9000545,6.9000545 0 0 0 3.20003,3.80003 c 2.00001,1.00001 4.80004,0.3 6.00005,-1.40001 0.4,-0.50001 0.8,-0.80001 1.1,-0.70001 0.90001,0 0.90001,1.00001 0,2.00002 -1.60001,2.00001 -5.50004,2.80002 -8.00006,1.60001 z m 13.70011,0 c -0.2,-0.3 -0.3,-3.00002 -0.3,-6.80005 v -6.40006 h -2.30002 c -2.50002,0 -3.00002,-0.2 -3.00002,-1 0.2,-0.40001 0.5,-0.50001 6.20005,-0.50001 h 6.10004 v 0.70001 c 0,0.7 0,0.7 -2.50002,0.8 l -2.50002,0.10001 v 6.50005 c -0.1,4.20003 -0.3,6.60005 -0.4,6.80005 -0.5,0.5 -1.00001,0.4 -1.30001,-0.2 z m 7.70006,0.2 c -0.2,-0.2 -0.3,-2.00001 -0.3,-7.30006 0,-7.50006 0,-7.90006 1.20001,-7.60006 0.5,0 0.5,0.50001 0.5,7.60006 0,7.30006 0,7.50006 -0.5,7.60006 -0.3,0 -0.70001,0 -0.90001,-0.3 z m 7.00006,-0.3 a 7.5000592,7.5000592 0 0 1 -4.30004,-7.00006 c 0,-8.90007 11.40009,-10.70008 14.00011,-2.30002 0.60001,2.00002 0.50001,3.70003 -0.3,5.60005 a 7.0000553,7.0000553 0 0 1 -9.40007,3.70003 z m 5.70004,-1.90002 c 4.50004,-3.20002 2.50002,-11.20009 -2.80002,-11.20009 -2.30002,0 -4.40004,1.70002 -5.20004,4.20004 -0.70001,2.00001 0.1,5.20004 1.60001,6.60005 a 5.1000403,5.1000403 0 0 0 6.40005,0.4 z m 5.60005,2.20002 a 114.4009,114.4009 0 0 1 0.6,-15.00012 c 0.4,0 1.50001,1.20001 5.30004,6.00005 l 4.80004,5.70004 0.3,-5.80004 0.1,-5.80005 h 1.40001 v 7.40006 l -0.1,7.70006 c -0.7,0.60001 -1.70001,-0.3 -6.00004,-5.80004 a 47.400374,47.400374 0 0 0 -4.70004,-5.50005 l -0.3,5.80005 c 0,5.50004 0,5.50004 -0.60001,5.60004 -0.4,0 -0.7,0 -0.8,-0.3 z m 26.70021,-0.2 a 8.100064,8.100064 0 0 1 -4.30004,-8.70007 c 0.80001,-3.80003 3.50003,-6.00005 7.10006,-6.00005 2.00001,0 3.50003,0.50001 4.80004,1.80002 1.60001,1.80001 0.5,2.80002 -1.30001,1.20001 a 5.2000411,5.2000411 0 0 0 -8.20007,1.40001 c -0.90001,1.60001 -1.00001,4.40003 -0.1,6.00005 a 7.7000608,7.7000608 0 0 0 3.20003,3.00002 c 1.80001,0.7 4.60003,-0.1 5.60004,-1.60001 0.70001,-1.00001 1.70001,-1.00001 1.80001,0 0.10001,0.7 -1,2.00001 -2.60002,2.80002 -1.80001,0.8 -4.30003,0.90001 -6.00004,0.1 z m 13.0001,0 a 8.0000632,8.0000632 0 0 1 -2.00002,-12.8001 c 3.30003,-3.50003 8.80007,-2.50002 11.20009,2.00001 0.50001,1.00001 0.60001,1.60002 0.60001,3.70003 0,2.30002 0,2.60002 -0.80001,3.90003 a 7.7000608,7.7000608 0 0 1 -3.70003,3.40003 8.0000632,8.0000632 0 0 1 -5.30004,-0.2 z m 4.70004,-1.40001 c 0.5,-0.2 1.30001,-0.80001 1.90001,-1.40001 3.80003,-4.30004 0.50001,-11.30009 -5.00004,-10.30008 -1.10001,0.2 -3.00002,1.80001 -3.60003,3.20002 a 8.100064,8.100064 0 0 0 0,5.60005 c 1.20001,2.60002 4.30004,4.00003 6.70006,3.00002 z m 6.70005,1.60001 V 148.5529 h 3.20002 c 4.00004,-0.1 4.70004,0 6.00005,1.10001 1.00001,1.00001 1.60002,2.30002 1.60002,4.00003 0,1.50002 -0.60001,2.50002 -2.00002,3.60003 l -1.00001,1.00001 1.40001,2.30002 c 1.60002,2.40002 1.80002,3.10002 0.70001,3.10002 -0.50001,0 -1.00001,-0.5 -2.40002,-2.70002 l -1.80002,-2.70002 h -2.00001 l -2.10002,0.1 v 2.50002 c -0.2,2.50002 -0.3,3.00002 -1.10001,3.00002 a 0.50000395,0.50000395 0 0 1 -0.5,-0.4 z m 8.00006,-7.60006 a 3.5000276,3.5000276 0 0 0 0,-5.00004 c -0.7,-0.6 -1,-0.7 -3.60003,-0.7 h -2.80002 v 3.00002 c -0.1,1.50001 -0.1,3.00002 0,3.20002 0,0.30001 0.70001,0.30001 2.90003,0.30001 2.50002,-0.1 2.80002,-0.2 3.40002,-0.80001 z m 4.40004,7.60006 a 94.000743,94.000743 0 0 1 -0.2,-14.60011 c 0.1,-0.30001 0.7,-0.40001 3.70003,-0.40001 3.00002,0 3.70002,0 4.60003,0.50001 3.10003,1.60001 3.50003,6.20005 0.60001,8.40006 -0.90001,0.70001 -1.20001,0.80001 -4.00004,0.90001 l -3.00002,0.1 -0.2,2.40002 c 0,1.30001 -0.2,2.50002 -0.3,2.70002 -0.40001,0.4 -0.80001,0.4 -1.20001,0 z m 7.20005,-7.20006 c 1.90002,-0.8 2.30002,-3.60002 0.70001,-5.20004 -0.90001,-0.9 -0.90001,-0.9 -3.60003,-0.9 h -2.70002 v 3.00002 c -0.1,1.50001 0,3.00002 0,3.20002 0.2,0.50001 4.40004,0.40001 5.60004,0 z M 174.1837,142.85286 a 28.000221,28.000221 0 0 1 -14.30012,-6.50005 42.300334,42.300334 0 0 1 -14.10011,-26.60021 61.000482,61.000482 0 0 1 0.70001,-15.700127 c 2.00001,-9.000072 6.30005,-16.500131 12.30009,-22.100175 l 2.20002,-2.000016 -0.8,-1.800014 a 19.200152,19.200152 0 0 1 -2.00002,-8.90007 c 0,-4.800038 1.30001,-8.300066 4.20003,-12.100096 2.50002,-3.300026 7.10006,-6.400051 11.10009,-7.400058 2.80002,-0.800007 7.50006,-0.800007 10.20008,0 a 22.000174,22.000174 0 0 1 13.50011,10.500083 c 1.60001,3.200025 2.00001,5.000039 2.00001,9.000071 0,3.700029 -0.4,5.500043 -1.80001,8.600068 l -0.90001,2.000015 3.10003,3.000024 a 41.200325,41.200325 0 0 1 12.10009,28.900225 41.700329,41.700329 0 0 1 -7.20005,26.50021 c -5.40005,8.00007 -12.7001,13.10011 -20.80017,14.40012 -2.60002,0.4 -6.80005,0.5 -9.30007,0.1 z m 8.00006,-15.80013 c 6.10005,-1.40001 12.00009,-8.00006 14.30011,-16.00012 0.80001,-3.00003 1.00001,-8.50007 0.60001,-11.800096 -1.20001,-8.200065 -6.60005,-16.000127 -12.7001,-18.400146 a 15.600123,15.600123 0 0 0 -14.20012,1.400011 26.000205,26.000205 0 0 0 -9.60007,14.500115 c -0.5,2.000016 -0.60001,3.000024 -0.60001,6.900056 0,4.00003 0.10001,4.80004 0.70001,7.00005 2.20002,8.20007 7.80006,14.70012 14.10011,16.30013 1.70001,0.40001 6.00005,0.40001 7.60006,0 z m -1.00001,-63.600499 c 2.20002,-0.700006 3.60003,-2.300018 3.60003,-4.000032 0,-2.000016 -1.30001,-3.400027 -3.90003,-4.300034 -4.50004,-1.400011 -9.60008,2.300018 -7.90006,5.700045 1.30001,2.400019 5.20004,3.600029 8.20006,2.600021 z m -62.60049,78.900619 c -0.40001,-0.3 -0.40001,-1 -0.40001,-8.00006 l 0.1,-7.50006 h 3.00003 l 3.00002,-0.2 V 55.75217 l -3.00002,-0.200002 h -3.00003 v -7.800061 c -0.1,-7.500059 -0.1,-7.60006 0.40001,-7.900063 0.8,-0.400003 19.90016,0 20.20016,0.400004 0,0.200001 0.2,23.000181 0.2,50.800401 0,27.800221 -0.1,50.700401 -0.2,50.900401 -0.3,0.4 -19.70016,0.70001 -20.30016,0.3 z m 107.20084,0 c -0.5,-0.4 -0.5,-0.5 0.40001,-3.00002 a 4773.4377,4773.4377 0 0 0 18.00014,-48.300381 4686.437,4686.437 0 0 0 12.5001,-35.300279 l -12.4001,-0.100001 h -12.1001 v 5.10004 l -0.2,5.00004 H 217.98404 V 39.852044 h 30.00024 c 25.6002,-0.1 30.00024,0 30.00024,0.200002 a 2966.7234,2966.7234 0 0 0 -4.30004,12.300097 21026.266,21026.266 0 0 1 -27.00021,74.000587 c 0,0.3 0.6,0.4 3.20002,0.5 h 3.20003 l 0.1,7.60006 c 0,4.20003 0,7.60006 -0.2,7.70006 0,0.2 -6.10005,0.3 -13.50011,0.40001 -11.00008,0 -13.4001,0 -13.80011,-0.30001 z m 68.20054,-0.1 c -0.4,-0.4 -0.4,-1.70001 -0.4,-13.0001 0,-9.30007 0,-12.5001 0.3,-12.8001 a 84.500668,84.500668 0 0 1 13.80011,-0.2 c 0.4,0.2 0.4,1.00001 0.4,5.00004 0,2.60002 0.10001,4.90004 0.20001,5.00004 0.4,1 4.30003,0.4 7.20005,-1.00001 2.40002,-1.00001 5.70005,-4.20003 7.60006,-7.20006 3.70003,-5.70004 6.50005,-14.00011 7.60006,-22.200173 0.60001,-3.900031 0.60001,-12.100096 0,-16.40013 -0.7,-6.500051 -3.10002,-14.00011 -5.60004,-17.80014 a 17.400137,17.400137 0 0 0 -6.00005,-5.700045 c -2.10002,-1.000008 -4.80004,-1.300011 -7.00005,-1.000008 -2.90003,0.500004 -4.60004,1.500012 -6.90006,3.80003 a 23.000182,23.000182 0 0 0 -2.00001,29.600234 10.000079,10.000079 0 0 0 8.30006,4.000031 c 2.30002,0 4.00003,-0.600005 6.40005,-2.100016 l 1.90002,-1.000008 a 108.10085,108.10085 0 0 1 8.60006,11.500095 c 0,0.5 -2.40001,2.60002 -4.60003,4.00003 a 26.700211,26.700211 0 0 1 -7.70006,3.00002 c -2.70002,0.5 -7.30006,0.5 -9.90008,0 -7.30006,-1.50001 -13.60011,-6.90005 -18.00014,-15.30012 a 40.300318,40.300318 0 0 1 -0.2,-35.200278 31.900252,31.900252 0 0 1 19.70015,-17.500138 c 2.40002,-0.600005 3.00002,-0.700006 6.80005,-0.600005 4.80004,0.100001 6.50006,0.500004 9.90008,2.000016 4.40004,2.100016 8.30007,5.600044 11.50009,10.300081 11.00009,16.40013 12.90011,43.400343 4.50004,64.200504 -5.20004,13.10011 -13.2001,22.30018 -22.20018,25.4002 -3.30002,1.20001 -4.80003,1.40001 -14.50011,1.50002 -8.30007,0.1 -9.30007,0 -9.70008,-0.30001 z"
       id="path4" />
    <path
       style="fill:#808080;stroke-width:0.264585"
       d="m 174.2837,142.85286 a 28.000221,28.000221 0 0 1 -14.30012,-6.50005 42.300334,42.300334 0 0 1 -14.20011,-26.60021 61.000482,61.000482 0 0 1 0.70001,-15.700127 c 2.00001,-9.000072 6.30005,-16.500131 12.30009,-22.100175 l 2.20002,-2.000016 -0.8,-1.800014 a 19.200152,19.200152 0 0 1 -2.00002,-8.90007 c 0,-4.800038 1.30001,-8.300066 4.20003,-12.100096 2.50002,-3.300026 7.10006,-6.400051 11.10009,-7.400058 2.80002,-0.800007 7.50006,-0.800007 10.20008,0 a 22.000174,22.000174 0 0 1 13.50011,10.500083 c 1.60001,3.200025 2.00001,5.000039 2.00001,9.000071 0,3.700029 -0.4,5.500043 -1.80001,8.600068 l -0.90001,2.000015 3.10003,3.000024 a 41.200325,41.200325 0 0 1 12.10009,28.900225 41.700329,41.700329 0 0 1 -7.20005,26.50021 c -5.40005,8.00007 -12.7001,13.10011 -20.80017,14.40012 -2.60002,0.4 -6.80005,0.5 -9.30007,0.1 z m 8.00006,-15.80013 c 6.10005,-1.40001 12.0001,-8.00006 14.30011,-16.00012 0.80001,-3.00003 1.00001,-8.50007 0.60001,-11.800096 -1.20001,-8.200065 -6.60005,-16.000127 -12.7001,-18.400146 a 15.600123,15.600123 0 0 0 -14.20011,1.400011 26.000205,26.000205 0 0 0 -9.70008,14.500115 c -0.5,2.000016 -0.60001,3.000024 -0.60001,6.900056 0,4.00003 0.10001,4.80004 0.70001,7.00005 2.20002,8.20007 7.80006,14.70012 14.10011,16.30013 1.70001,0.40001 6.00005,0.40001 7.60006,0 z m -1.10001,-63.600499 c 2.20002,-0.700006 3.60003,-2.300018 3.60003,-4.000032 0,-2.000016 -1.30001,-3.400027 -3.90003,-4.300034 -4.50004,-1.400011 -9.60008,2.300018 -7.90006,5.700045 1.30001,2.400019 5.20004,3.600029 8.20006,2.600021 z m -62.60049,78.900619 c -0.40001,-0.3 -0.40001,-1 -0.40001,-8.00006 l 0.1,-7.50006 h 3.00003 l 3.00002,-0.2 V 55.75217 l -3.00002,-0.200002 h -3.00003 v -7.800061 c -0.1,-7.500059 -0.1,-7.60006 0.40001,-7.900063 0.8,-0.400003 19.90016,0 20.20016,0.400004 0,0.200001 0.2,23.000181 0.2,50.800401 0,27.800221 -0.1,50.700401 -0.2,50.900401 -0.3,0.4 -19.70016,0.70001 -20.30016,0.3 z m 107.20084,0 c -0.5,-0.4 -0.5,-0.5 0.40001,-3.00002 a 4773.4377,4773.4377 0 0 0 18.00014,-48.300381 4686.437,4686.437 0 0 0 12.5001,-35.300279 l -12.4001,-0.100001 h -12.1001 v 5.10004 l -0.2,5.00004 H 217.98404 V 39.852044 h 30.00024 c 25.6002,-0.1 30.00024,0 30.00024,0.200002 a 2966.7234,2966.7234 0 0 0 -4.30004,12.300097 21026.266,21026.266 0 0 1 -27.00021,74.000587 c 0,0.3 0.6,0.4 3.20002,0.5 h 3.20003 l 0.1,7.60006 c 0,4.20003 0,7.60006 -0.2,7.70006 0,0.2 -6.10005,0.3 -13.50011,0.40001 -11.00008,0 -13.4001,0 -13.80011,-0.30001 z m 68.20054,-0.1 c -0.4,-0.4 -0.4,-1.70001 -0.4,-13.0001 0,-9.30007 0,-12.5001 0.3,-12.8001 a 84.500668,84.500668 0 0 1 13.80011,-0.2 c 0.4,0.2 0.4,1.00001 0.4,5.00004 0,2.60002 0.10001,4.90004 0.20001,5.00004 0.4,1 4.30003,0.4 7.20005,-1.00001 2.40002,-1.00001 5.70005,-4.20003 7.60006,-7.20006 3.70003,-5.70004 6.50005,-14.00011 7.60006,-22.200173 0.60001,-3.900031 0.60001,-12.100096 0,-16.40013 -0.7,-6.500051 -3.10002,-14.00011 -5.60004,-17.80014 a 17.400137,17.400137 0 0 0 -6.00005,-5.700045 c -2.10002,-1.000008 -4.80004,-1.300011 -7.00005,-1.000008 -2.90003,0.500004 -4.60004,1.500012 -6.90006,3.80003 a 23.000182,23.000182 0 0 0 -2.00001,29.600234 10.000079,10.000079 0 0 0 8.30006,4.000031 c 2.30002,0 4.00003,-0.600005 6.40005,-2.100016 l 1.90002,-1.000008 a 108.10085,108.10085 0 0 1 8.60006,11.500095 c 0,0.5 -2.40001,2.60002 -4.60003,4.00003 a 26.700211,26.700211 0 0 1 -7.70006,3.00002 c -2.70002,0.5 -7.30006,0.5 -9.90008,0 -7.30006,-1.50001 -13.60011,-6.90005 -18.00014,-15.30012 a 40.300318,40.300318 0 0 1 -0.2,-35.200278 31.900252,31.900252 0 0 1 19.70015,-17.500138 c 2.40002,-0.600005 3.00002,-0.700006 6.80005,-0.600005 4.80004,0.100001 6.50006,0.500004 9.90008,2.000016 4.40004,2.100016 8.30007,5.600044 11.50009,10.300081 11.00009,16.40013 12.90011,43.400343 4.50004,64.200504 -5.20004,13.10011 -13.2001,22.30018 -22.20018,25.4002 -3.30002,1.20001 -4.80003,1.40001 -14.50011,1.50002 -8.30007,0.1 -9.30007,0 -9.70008,-0.30001 z"
       id="path6" />
    <path
       style="fill:#9d9ea1;stroke-width:0.264585"
       d="m 28.782548,166.25304 -4.500036,-0.3 C 4.2823542,164.25303 -16.817812,158.95299 -36.217966,150.95292 A 217.00171,217.00171 0 0 1 -55.918121,140.95284 C -85.918358,122.9527 -96.21844,101.55253 -80.918319,88.552429 c 2.50002,-2.200017 2.800022,-2.200017 2.50002,-0.400003 -0.500004,2.800022 -0.200002,6.800054 0.500004,9.400074 a 38.0003,38.0003 0 0 0 7.000055,12.6001 c 1.600013,1.90001 5.900047,6.30005 6.200049,6.30005 l 0.300002,-5.20004 c 0,-5.00004 0,-5.30004 0.700006,-6.40005 0.800006,-1.30001 1.400011,-1.70002 8.000063,-4.40004 a 17077.635,17077.635 0 0 0 22.600179,-8.900067 c 1.700013,0 3.500027,1.600012 4.000031,3.400027 0.200002,0.600004 0.300003,7.40006 0.300003,19.20015 v 24.8002 l 2.300018,1.00001 2.900023,1.30001 0.600005,0.1 v -28.60023 c 0,-27.200215 0,-28.800227 -0.400004,-29.000229 L -33.417944,83.65239 c -7.70006,0 -10.300081,0 -13.200104,0.400004 a 63.000498,63.000498 0 0 0 -22.200175,6.40005 c -1.100009,0.600005 -2.100017,1.000008 -2.200018,0.900007 -0.500004,-0.500004 1.800015,-4.200033 3.80003,-6.30005 7.000056,-7.400058 20.100159,-11.50009 39.20031,-12.000094 l 5.00004,-0.200002 V 60.552208 c 0,-13.500107 0,-13.200104 1.800014,-14.800117 1.100008,-1.000008 4.000031,-2.400019 4.300034,-2.200017 0.200001,0.1 0.300002,10.600083 0.300002,28.200222 0,26.700211 0,28.000222 0.500004,28.400224 0.600005,0.5 1.700013,0.5 2.100017,0 0.300002,-0.200001 0.300002,-7.500058 0.300002,-29.300231 0,-27.400216 0,-29.000229 0.500004,-29.300231 0.700005,-0.700006 4.3000339,-2.400019 4.5000355,-2.200018 0.2000016,0 0.3000024,13.600108 0.3000024,36.500289 0,36.000281 0,36.400291 0.5000039,36.900291 0.7000055,0.60001 1.3000103,0.70001 2.0000158,0.1 0.500004,-0.3 0.500004,-1.00001 0.6000048,-37.500295 V 37.752028 c 0,-0.500004 4.1000323,-2.700022 4.70003708,-2.400019 0.30000237,0 0.40000316,7.000055 0.40000316,45.400358 0,33.700263 0,45.400363 0.30000237,45.900363 0.20000158,0.5 0.50000395,0.6 1.20000949,0.6 1.8000142,0 1.7000134,3.90004 1.7000134,-47.50037 V 33.351993 l 2.3000182,-1.000008 c 1.3000103,-0.700005 2.8000221,-1.200009 3.4000269,-1.30001 1.0000079,-0.100001 1.2000094,0 2.000016,0.700005 0.600004,0.500004 1.200009,1.300011 1.500012,1.700014 0.400003,0.800006 0.400003,4.800038 0.400003,59.600471 0,32.400255 0.100001,58.900465 0.200001,59.000465 l 7.300058,1.00001 a 179.00141,179.00141 0 0 0 16.600131,1.80001 c 3.400027,0.30001 17.200136,0.2 20.400161,0 l 10.900086,-1.20001 5.400043,-1 a 57.00045,57.00045 0 0 0 10.700085,-4.00004 c 1.500011,-0.9 2.700021,-1.40001 2.700021,-1.20001 l -0.500004,1.30001 c -5.00004,9.80008 -19.200152,16.00013 -39.900315,17.40014 -3.700029,0.3 -15.000119,0.3 -17.600139,0.1 z M 174.1837,142.85286 a 28.000221,28.000221 0 0 1 -14.30012,-6.50005 42.300334,42.300334 0 0 1 -14.10011,-26.60021 61.000482,61.000482 0 0 1 0.70001,-15.700127 c 2.00001,-9.000072 6.30005,-16.500131 12.30009,-22.100175 l 2.20002,-2.000016 -0.8,-1.800014 a 19.200152,19.200152 0 0 1 -2.00002,-8.90007 c 0,-4.800038 1.30001,-8.300066 4.20003,-12.100096 2.50002,-3.300026 7.10006,-6.400051 11.10009,-7.400058 2.80002,-0.800007 7.50006,-0.800007 10.20008,0 a 22.000174,22.000174 0 0 1 13.50011,10.500083 c 1.60001,3.200025 2.00001,5.000039 2.00001,9.000071 0,3.700029 -0.4,5.500043 -1.80001,8.600068 l -0.90001,2.000015 3.10003,3.000024 a 41.200325,41.200325 0 0 1 12.10009,28.900225 41.700329,41.700329 0 0 1 -7.20005,26.50021 c -5.40005,8.00007 -12.7001,13.10011 -20.80017,14.40012 -2.60002,0.4 -6.80005,0.5 -9.30007,0.1 z m 8.00006,-15.80013 c 6.10005,-1.40001 12.00009,-8.00006 14.30011,-16.00012 0.80001,-3.00003 1.00001,-8.50007 0.60001,-11.800096 -1.20001,-8.200065 -6.60005,-16.000127 -12.7001,-18.400146 a 15.600123,15.600123 0 0 0 -14.20012,1.400011 26.000205,26.000205 0 0 0 -9.60007,14.500115 c -0.5,2.000016 -0.60001,3.000024 -0.60001,6.900056 0,4.00003 0.10001,4.80004 0.70001,7.00005 2.20002,8.20007 7.80006,14.70012 14.10011,16.30013 1.70001,0.40001 6.00005,0.40001 7.60006,0 z m -1.00001,-63.600499 c 2.20002,-0.700006 3.60003,-2.300018 3.60003,-4.000032 0,-2.000016 -1.30001,-3.400027 -3.90003,-4.300034 -4.50004,-1.400011 -9.60008,2.300018 -7.90006,5.700045 1.30001,2.400019 5.20004,3.600029 8.20006,2.600021 z M 82.18297,141.75285 c 0.800006,-4.00003 0.400003,-7.80006 -1.20001,-11.70009 a 36.400288,36.400288 0 0 0 -7.400058,-11.00009 l -2.300019,-2.70002 v -8.30007 c 0.100001,-5.10004 0.300003,-8.400063 0.400004,-8.500064 0.600004,-0.600005 8.800069,6.800054 12.300097,11.000084 3.300026,4.20004 5.600044,8.50007 6.600052,12.4001 0.700005,2.30002 0.800006,6.00005 0.300002,8.40007 -0.400003,2.00001 -2.100016,5.30004 -3.600028,7.10005 a 20.30016,20.30016 0 0 1 -4.900039,4.20004 c -0.200001,0 -0.200001,-0.30001 -0.100001,-0.90001 z m 36.40029,0.6 c -0.40001,-0.3 -0.40001,-1 -0.40001,-8.00006 l 0.1,-7.50006 h 3.00003 l 3.00002,-0.2 V 55.75217 l -3.00002,-0.200002 h -3.00003 v -7.800061 c -0.1,-7.500059 -0.1,-7.60006 0.40001,-7.900063 0.8,-0.400003 19.90016,0 20.20016,0.400004 0,0.200001 0.2,23.000181 0.2,50.800401 0,27.800221 -0.1,50.700401 -0.2,50.900401 -0.3,0.4 -19.70016,0.70001 -20.30016,0.3 z m 107.20084,0 c -0.5,-0.4 -0.5,-0.5 0.40001,-3.00002 a 4773.4377,4773.4377 0 0 0 18.00014,-48.300381 4686.437,4686.437 0 0 0 12.5001,-35.300279 l -12.4001,-0.100001 h -12.1001 v 5.10004 l -0.2,5.00004 H 217.98404 V 39.852044 h 30.00024 c 25.6002,-0.1 30.00024,0 30.00024,0.200002 a 2966.7234,2966.7234 0 0 0 -4.30004,12.300097 21026.266,21026.266 0 0 1 -27.00021,74.000587 c 0,0.3 0.6,0.4 3.20002,0.5 h 3.20003 l 0.1,7.60006 c 0,4.20003 0,7.60006 -0.2,7.70006 0,0.2 -6.10005,0.3 -13.50011,0.40001 -11.00008,0 -13.4001,0 -13.80011,-0.30001 z m 68.20054,-0.1 c -0.4,-0.4 -0.4,-1.70001 -0.4,-13.0001 0,-9.30007 0,-12.5001 0.3,-12.8001 a 84.500668,84.500668 0 0 1 13.80011,-0.2 c 0.4,0.2 0.4,1.00001 0.4,5.00004 0,2.60002 0.10001,4.90004 0.20001,5.00004 0.4,1 4.30003,0.4 7.20005,-1.00001 2.40002,-1.00001 5.70005,-4.20003 7.60006,-7.20006 3.70003,-5.70004 6.50005,-14.00011 7.60006,-22.200173 0.60001,-3.900031 0.60001,-12.100096 0,-16.40013 -0.7,-6.500051 -3.10002,-14.00011 -5.60004,-17.80014 a 17.400137,17.400137 0 0 0 -6.00005,-5.700045 c -2.10002,-1.000008 -4.80004,-1.300011 -7.00005,-1.000008 -2.90003,0.500004 -4.60004,1.500012 -6.90006,3.80003 a 23.000182,23.000182 0 0 0 -2.00001,29.600234 10.000079,10.000079 0 0 0 8.30006,4.000031 c 2.30002,0 4.00003,-0.600005 6.40005,-2.100016 l 1.90002,-1.000008 a 108.10085,108.10085 0 0 1 8.60006,11.500095 c 0,0.5 -2.40001,2.60002 -4.60003,4.00003 a 26.700211,26.700211 0 0 1 -7.70006,3.00002 c -2.70002,0.5 -7.30006,0.5 -9.90008,0 -7.30006,-1.50001 -13.60011,-6.90005 -18.00014,-15.30012 a 40.300318,40.300318 0 0 1 -0.2,-35.200278 31.900252,31.900252 0 0 1 19.70015,-17.500138 c 2.40002,-0.600005 3.00002,-0.700006 6.80005,-0.600005 4.80004,0.100001 6.50006,0.500004 9.90008,2.000016 4.40004,2.100016 8.30007,5.600044 11.50009,10.300081 11.00009,16.40013 12.90011,43.400343 4.50004,64.200504 -5.20004,13.10011 -13.2001,22.30018 -22.20018,25.4002 -3.30002,1.20001 -4.80003,1.40001 -14.50011,1.50002 -8.30007,0.1 -9.30007,0 -9.70008,-0.30001 z"
       id="path8" />
    <path
       style="fill:#2691ca;stroke-width:0.264585"
       d="m 8.7823897,151.35293 a 226.00179,226.00179 0 0 1 -31.0002447,-9.50008 c -0.200002,-0.2 -0.300003,-4.60004 -0.200002,-29.00023 0,-23.400184 0,-29.000228 -0.300002,-29.30023 l 0.100001,-10.700085 c 0.1,-0.200001 0.200001,-5.900047 0.200001,-12.600099 0,-11.700093 0,-12.200097 0.500004,-13.000103 0.600005,-1.100009 3.600029,-3.000024 4.400035,-3.000024 0.500004,0 0.500004,0.200002 0.600005,27.80022 0,21.300168 0.100001,27.90022 0.400003,28.200221 0.700005,0.90001 2.50002,0.80001 3.000024,-0.2 0.1,-0.200002 0.300002,-13.400106 0.300002,-29.300232 l 0.200002,-29.000229 1.600012,-0.900007 c 1.9000152,-1.000008 2.3000183,-1.000008 2.6000207,-0.500004 l 0.1000008,36.300287 c 0,35.500285 0,35.800285 0.6000047,36.400285 0.3000024,0.2 0.8000064,0.50001 1.3000103,0.50001 0.4000032,0 1.0000079,-0.30001 1.3000103,-0.50001 0.5000039,-0.6 0.5000039,-1.00001 0.5000039,-37.900297 V 37.852029 l 0.7000056,-0.500004 c 0.9000071,-0.600005 3.0000237,-1.400011 3.40002681,-1.20001 0.40000316,0 0.40000316,5.800046 0.40000316,45.200357 v 45.200358 l 0.70000553,0.6 c 0.30000237,0.40001 0.9000071,0.70001 1.2000095,0.70001 0.3000024,0 0.8000063,-0.3 1.2000095,-0.70001 l 0.6000047,-0.6 V 80.252364 c 0,-43.700346 0,-46.300366 0.500004,-46.700369 0.8000063,-0.700006 4.3000339,-2.000016 5.200041,-2.000016 1.2000095,0 2.4000185,1.000008 3.0000235,2.400019 0.300003,1.000008 0.300003,6.700053 0.300003,59.50047 0,58.000462 -0.100001,58.300462 -0.600005,58.400462 a 16.000126,16.000126 0 0 1 -2.8000223,-0.5 z M 175.48371,142.65286 c -4.70004,-0.60001 -8.60007,-2.00002 -12.5001,-4.50004 a 40.50032,40.50032 0 0 1 -17.00014,-33.00026 c -0.5,-12.200096 4.00004,-23.900189 12.2001,-32.000253 a 20.000158,20.000158 0 0 0 3.00002,-3.300026 c 0,-0.300002 -0.4,-1.200009 -0.8,-2.100016 -2.90003,-6.30005 -2.30002,-13.800109 1.60001,-19.500154 1.90002,-2.700022 5.60004,-5.800046 8.70007,-7.100056 2.30002,-1.100009 4.00003,-1.400011 7.00005,-1.600013 5.90005,-0.300002 10.50009,1.500012 15.00012,5.700045 a 18.000142,18.000142 0 0 1 6.00005,14.000111 c 0,3.200025 -0.4,5.500043 -1.60001,8.300065 l -1.00001,2.400019 c 0,0.200002 1.20001,1.30001 2.50002,2.600021 a 40.300318,40.300318 0 0 1 12.6001,27.400216 43.00034,43.00034 0 0 1 -13.0001,35.100281 28.000221,28.000221 0 0 1 -22.70018,7.60006 z m 8.00006,-15.60013 c 3.50003,-1.10001 7.10006,-4.00003 9.80008,-8.00006 3.40002,-5.00004 5.00004,-10.90009 4.50003,-17.20014 -0.6,-10.000075 -6.40005,-19.000146 -13.90011,-21.600166 -2.10001,-0.800007 -6.20005,-1.000008 -8.50006,-0.600005 -2.20002,0.400003 -5.00004,1.800014 -6.90006,3.300026 -3.00002,2.400019 -6.30005,7.400058 -7.70006,11.700092 a 35.40028,35.40028 0 0 0 -1.00001,13.900113 c 1.00001,5.40004 3.80003,10.90008 7.70006,14.60011 a 15.000118,15.000118 0 0 0 11.8001,4.50004 c 1.30001,0 3.20002,-0.3 4.10003,-0.60001 z m -2.80002,-63.100495 c 2.70002,-0.700006 4.40003,-2.400019 4.40003,-4.500036 0,-2.900023 -2.70002,-4.900038 -6.50005,-5.000039 a 6.0000474,6.0000474 0 0 0 -3.40003,1.000008 c -2.30001,1.100008 -3.00002,2.100016 -2.80002,4.200033 0,1.700013 0.80001,2.700021 2.70002,3.700029 a 7.0000553,7.0000553 0 0 0 5.60005,0.600005 z m -62.00049,78.000615 -0.1,-7.40006 c 0,-6.30005 0,-7.20005 0.4,-7.40006 l 2.90002,-0.1 c 1.50002,0 2.50002,-0.1 2.70002,-0.3 0.30001,-0.3 0.30001,-8.50007 0.30001,-35.50028 l -0.1,-35.50028 c -0.1,-0.400003 -0.70001,-0.400003 -2.90003,-0.400003 l -3.00002,-0.200002 c -0.2,-0.200001 -0.3,-1.900015 -0.2,-7.500059 v -7.300058 h 19.60015 V 141.95285 h -19.50015 z m 107.20084,0 c -0.1,-0.3 2.80003,-8.50007 4.90004,-14.00011 a 871.50688,871.50688 0 0 0 6.90006,-18.50015 2888.2228,2888.2228 0 0 0 12.8001,-34.800271 c 7.10006,-19.200151 7.00005,-18.700147 6.60005,-19.00015 -0.3,-0.400003 -24.50019,-0.500004 -25.0002,-0.200001 -0.2,0.1 -0.3,1.800014 -0.3,4.700037 0,2.60002 0,4.700037 -0.2,5.000039 -0.3,0.500004 -0.6,0.500004 -6.60005,0.500004 -4.50004,0 -6.40005,-0.100001 -6.60005,-0.300002 -0.20001,-0.300003 -0.30001,-3.400027 -0.30001,-12.6001 V 40.452049 l 0.70001,-0.200001 c 1.00001,-0.400004 58.20046,-0.200002 58.60046,0.200001 0.2,0.200002 -0.3,2.000016 -1.60001,5.500044 a 2550.0201,2550.0201 0 0 0 -10.30008,27.800219 1798.7142,1798.7142 0 0 0 -11.60009,31.400248 676.50534,676.50534 0 0 0 -7.70006,21.60017 c 0.1,0.3 1,0.4 3.00002,0.4 1.60001,0 3.00002,0 3.20002,0.20001 0.30001,0.2 0.30001,1.80001 0.30001,7.50005 v 7.20006 H 225.8841 Z m 68.20054,-0.2 v -24.9002 h 13.50011 l 0.2,5.00004 0.1,5.00004 h 2.50002 c 2.80002,0 4.40004,-0.5 6.70006,-2.00001 6.10004,-4.10004 11.30008,-14.30012 13.6001,-26.500213 a 67.400532,67.400532 0 0 0 -0.4,-23.500186 c -2.30002,-10.800085 -6.00005,-17.000134 -11.60009,-19.600155 -1.40001,-0.600005 -1.80002,-0.700005 -4.90004,-0.700005 -3.30003,0 -3.30003,0 -5.30004,1.000007 -4.00003,2.000016 -7.50006,6.600053 -9.30008,12.400098 -1,3.000024 -1.20001,8.300066 -0.6,11.600092 a 21.000166,21.000166 0 0 0 5.60004,10.700085 c 3.80003,3.300026 9.10008,3.400026 14.00011,0.300002 1.20001,-0.800006 1.30001,-0.800006 1.80002,-0.400003 0.6,0.600004 7.60006,9.800077 7.80006,10.300078 0.2,0.60001 -0.4,1.30001 -2.50002,2.80003 a 26.400209,26.400209 0 0 1 -8.20006,4.00003 c -3.00003,0.8 -8.50007,0.8 -11.6001,0 -4.20003,-1.10001 -7.00005,-2.80003 -10.20008,-5.90005 -5.10004,-5.000039 -8.80007,-11.600091 -10.20008,-18.600147 -0.7,-3.300026 -0.7,-12.200096 0,-15.500122 a 36.400288,36.400288 0 0 1 18.50015,-25.500202 25.600202,25.600202 0 0 1 15.40012,-1.700013 c 11.00009,2.200017 19.60016,12.400098 24.00019,28.900228 a 81.00064,81.00064 0 0 1 1.20001,31.800256 c -2.00002,14.40011 -10.40008,30.00023 -19.50015,36.50028 -3.40003,2.40002 -7.30006,4.00004 -11.10009,4.60004 -2.60002,0.4 -19.30015,0.3 -19.50016,0 z m -325.102565,-3.50003 a 306.00242,306.00242 0 0 1 -10.900086,-5.30004 c -3.80003,-2.10002 -6.000047,-3.50003 -10.800085,-6.60005 -14.600115,-7.20006 -14.400114,-20.90017 -3.000024,-25.5002 l 13.600108,-5.400046 c 4.500035,-1.900015 8.600068,-3.400027 9.000071,-3.400027 1.100008,0 2.400019,0.800006 3.200025,1.900015 l 0.600005,0.800006 v 43.400342 c -0.300003,0.60001 -0.600005,0.60001 -1.700014,0.1 z"
       id="path10" />
  </g>
</svg>
